<mxfile host="app.diagrams.net" modified="2024-02-18T22:05:15.222Z" agent="Mozilla/5.0 (Macintosh; Intel Mac OS X 10_15_7) AppleWebKit/537.36 (KHTML, like Gecko) Chrome/121.0.0.0 Safari/537.36" etag="LpNdQTWB1ZuKPKf4OYF6" version="23.1.5" type="github">
  <diagram name="Page-1" id="-fcbjgKUb2psxDIWFbP7">
    <mxGraphModel dx="1026" dy="631" grid="1" gridSize="10" guides="1" tooltips="1" connect="1" arrows="1" fold="1" page="1" pageScale="1" pageWidth="850" pageHeight="1100" math="0" shadow="0">
      <root>
        <mxCell id="0" />
        <mxCell id="1" parent="0" />
        <mxCell id="F5rcAeHnkL8GsP4LC-Ne-1" value="" style="rounded=0;whiteSpace=wrap;html=1;fillColor=#1e2d2f;" vertex="1" parent="1">
          <mxGeometry x="130" y="40" width="590" height="980" as="geometry" />
        </mxCell>
        <mxCell id="F5rcAeHnkL8GsP4LC-Ne-2" value="" style="rounded=0;whiteSpace=wrap;html=1;fillColor=#F1ab86;strokeColor=none;" vertex="1" parent="1">
          <mxGeometry x="130" y="40" width="590" height="70" as="geometry" />
        </mxCell>
        <mxCell id="F5rcAeHnkL8GsP4LC-Ne-3" value="Alivia Nytko" style="rounded=0;whiteSpace=wrap;html=1;fillColor=#F1AB86;shadow=0;strokeColor=none;fontColor=#ffffff;fontSize=30;fontFamily=Bebas Neue;fontSource=https%3A%2F%2Ffonts.googleapis.com%2Fcss%3Ffamily%3DBebas%2BNeue;" vertex="1" parent="1">
          <mxGeometry x="150" y="45" width="150" height="60" as="geometry" />
        </mxCell>
        <mxCell id="F5rcAeHnkL8GsP4LC-Ne-4" value="&amp;nbsp; Profile" style="rounded=1;whiteSpace=wrap;html=1;strokeColor=#1E2D2F;align=left;" vertex="1" parent="1">
          <mxGeometry x="480" y="55" width="70" height="40" as="geometry" />
        </mxCell>
        <mxCell id="F5rcAeHnkL8GsP4LC-Ne-5" value="&amp;nbsp;Projects" style="rounded=1;whiteSpace=wrap;html=1;strokeColor=#1E2D2F;align=left;" vertex="1" parent="1">
          <mxGeometry x="560" y="55" width="70" height="40" as="geometry" />
        </mxCell>
        <mxCell id="F5rcAeHnkL8GsP4LC-Ne-6" value="Contact" style="rounded=1;whiteSpace=wrap;html=1;strokeColor=#1E2D2F;" vertex="1" parent="1">
          <mxGeometry x="640" y="55" width="70" height="40" as="geometry" />
        </mxCell>
        <mxCell id="F5rcAeHnkL8GsP4LC-Ne-15" value="" style="rounded=1;whiteSpace=wrap;html=1;fillColor=#b7b7a4;opacity=70;strokeColor=none;" vertex="1" parent="1">
          <mxGeometry x="150" y="130" width="550" height="220" as="geometry" />
        </mxCell>
        <mxCell id="F5rcAeHnkL8GsP4LC-Ne-16" value="" style="rounded=1;whiteSpace=wrap;html=1;rotation=-90;strokeColor=none;" vertex="1" parent="1">
          <mxGeometry x="160" y="160" width="240" height="200" as="geometry" />
        </mxCell>
        <mxCell id="F5rcAeHnkL8GsP4LC-Ne-17" value="" style="shape=actor;whiteSpace=wrap;html=1;" vertex="1" parent="1">
          <mxGeometry x="235" y="230" width="90" height="120" as="geometry" />
        </mxCell>
        <mxCell id="F5rcAeHnkL8GsP4LC-Ne-18" value="Profile Picture" style="text;html=1;align=center;verticalAlign=middle;whiteSpace=wrap;rounded=0;" vertex="1" parent="1">
          <mxGeometry x="240" y="170" width="80" height="30" as="geometry" />
        </mxCell>
        <mxCell id="F5rcAeHnkL8GsP4LC-Ne-19" value="&lt;h1&gt;&lt;span style=&quot;background-color: initial;&quot;&gt;&lt;font style=&quot;font-size: 30px;&quot; data-font-src=&quot;https://fonts.googleapis.com/css?family=Bebas+Neue&quot; face=&quot;Bebas Neue&quot; color=&quot;#ffffff&quot;&gt;About me&amp;nbsp;&lt;/font&gt;&lt;/span&gt;&lt;/h1&gt;" style="text;html=1;spacing=5;spacingTop=-20;whiteSpace=wrap;overflow=hidden;rounded=0;align=center;" vertex="1" parent="1">
          <mxGeometry x="445" y="155" width="190" height="60" as="geometry" />
        </mxCell>
        <mxCell id="F5rcAeHnkL8GsP4LC-Ne-20" value="&lt;font color=&quot;#ffffff&quot;&gt;Information about me........&lt;/font&gt;" style="text;html=1;align=center;verticalAlign=middle;whiteSpace=wrap;rounded=0;" vertex="1" parent="1">
          <mxGeometry x="420" y="209" width="240" height="111" as="geometry" />
        </mxCell>
        <mxCell id="F5rcAeHnkL8GsP4LC-Ne-21" value="" style="rounded=1;whiteSpace=wrap;html=1;fillColor=#c57b57;opacity=70;strokeColor=none;" vertex="1" parent="1">
          <mxGeometry x="150" y="390" width="550" height="320" as="geometry" />
        </mxCell>
        <mxCell id="F5rcAeHnkL8GsP4LC-Ne-22" value="" style="rounded=1;whiteSpace=wrap;html=1;rotation=-90;strokeColor=#B7B7A4;strokeWidth=3;" vertex="1" parent="1">
          <mxGeometry x="120" y="495" width="290" height="110" as="geometry" />
        </mxCell>
        <mxCell id="F5rcAeHnkL8GsP4LC-Ne-23" value="" style="rounded=1;whiteSpace=wrap;html=1;rotation=-90;strokeColor=#1E2D2F;strokeWidth=4;" vertex="1" parent="1">
          <mxGeometry x="280" y="495" width="290" height="110" as="geometry" />
        </mxCell>
        <mxCell id="F5rcAeHnkL8GsP4LC-Ne-24" value="" style="rounded=1;whiteSpace=wrap;html=1;rotation=-90;strokeColor=#F1AB86;strokeWidth=3;" vertex="1" parent="1">
          <mxGeometry x="445" y="495" width="290" height="110" as="geometry" />
        </mxCell>
        <mxCell id="F5rcAeHnkL8GsP4LC-Ne-26" value="&lt;font style=&quot;font-size: 16px;&quot; data-font-src=&quot;https://fonts.googleapis.com/css?family=Bebas+Neue&quot; face=&quot;Bebas Neue&quot;&gt;Eco-Evo Picture&lt;/font&gt;" style="rounded=1;whiteSpace=wrap;html=1;strokeColor=none;" vertex="1" parent="1">
          <mxGeometry x="220" y="410" width="90" height="70" as="geometry" />
        </mxCell>
        <mxCell id="F5rcAeHnkL8GsP4LC-Ne-27" value="&lt;font data-font-src=&quot;https://fonts.googleapis.com/css?family=Bebas+Neue&quot; face=&quot;Bebas Neue&quot; style=&quot;font-size: 16px;&quot;&gt;Data Science Picture&lt;/font&gt;" style="rounded=1;whiteSpace=wrap;html=1;strokeColor=none;" vertex="1" parent="1">
          <mxGeometry x="380" y="410" width="90" height="70" as="geometry" />
        </mxCell>
        <mxCell id="F5rcAeHnkL8GsP4LC-Ne-28" value="&lt;font style=&quot;font-size: 16px;&quot; data-font-src=&quot;https://fonts.googleapis.com/css?family=Bebas+Neue&quot; face=&quot;Bebas Neue&quot;&gt;Software Engineering &lt;br&gt;Picture&lt;/font&gt;" style="rounded=1;whiteSpace=wrap;html=1;strokeColor=none;" vertex="1" parent="1">
          <mxGeometry x="540" y="410" width="100" height="70" as="geometry" />
        </mxCell>
        <mxCell id="F5rcAeHnkL8GsP4LC-Ne-30" value="Relevant information" style="text;html=1;align=center;verticalAlign=middle;whiteSpace=wrap;rounded=0;" vertex="1" parent="1">
          <mxGeometry x="235" y="535" width="60" height="30" as="geometry" />
        </mxCell>
        <mxCell id="F5rcAeHnkL8GsP4LC-Ne-31" value="Relevant information" style="text;html=1;align=center;verticalAlign=middle;whiteSpace=wrap;rounded=0;" vertex="1" parent="1">
          <mxGeometry x="395" y="535" width="60" height="30" as="geometry" />
        </mxCell>
        <mxCell id="F5rcAeHnkL8GsP4LC-Ne-32" value="Relevant information" style="text;html=1;align=center;verticalAlign=middle;whiteSpace=wrap;rounded=0;" vertex="1" parent="1">
          <mxGeometry x="560" y="535" width="60" height="30" as="geometry" />
        </mxCell>
        <mxCell id="F5rcAeHnkL8GsP4LC-Ne-33" value="" style="ellipse;whiteSpace=wrap;html=1;aspect=fixed;" vertex="1" parent="1">
          <mxGeometry x="235" y="670" width="20" height="20" as="geometry" />
        </mxCell>
        <mxCell id="F5rcAeHnkL8GsP4LC-Ne-34" value="" style="ellipse;whiteSpace=wrap;html=1;aspect=fixed;" vertex="1" parent="1">
          <mxGeometry x="270" y="670" width="20" height="20" as="geometry" />
        </mxCell>
        <mxCell id="F5rcAeHnkL8GsP4LC-Ne-35" value="" style="ellipse;whiteSpace=wrap;html=1;aspect=fixed;" vertex="1" parent="1">
          <mxGeometry x="415" y="670" width="20" height="20" as="geometry" />
        </mxCell>
        <mxCell id="F5rcAeHnkL8GsP4LC-Ne-36" value="" style="ellipse;whiteSpace=wrap;html=1;aspect=fixed;" vertex="1" parent="1">
          <mxGeometry x="580" y="670" width="20" height="20" as="geometry" />
        </mxCell>
        <mxCell id="F5rcAeHnkL8GsP4LC-Ne-37" value="" style="shape=image;html=1;verticalAlign=top;verticalLabelPosition=bottom;labelBackgroundColor=#ffffff;imageAspect=0;aspect=fixed;image=https://cdn0.iconfinder.com/data/icons/green-world/80/Green_World-14-128.png;fontColor=#FFFFFF;" vertex="1" parent="1">
          <mxGeometry x="284" y="45" width="49" height="49" as="geometry" />
        </mxCell>
        <mxCell id="F5rcAeHnkL8GsP4LC-Ne-39" value="" style="rounded=1;whiteSpace=wrap;html=1;fillColor=#1E2D2F;opacity=70;strokeColor=#F1AB86;strokeWidth=4;" vertex="1" parent="1">
          <mxGeometry x="150" y="750" width="550" height="230" as="geometry" />
        </mxCell>
        <mxCell id="F5rcAeHnkL8GsP4LC-Ne-40" value="&lt;font style=&quot;font-size: 42px;&quot; color=&quot;#ffffff&quot; data-font-src=&quot;https://fonts.googleapis.com/css?family=Bebas+Neue&quot; face=&quot;Bebas Neue&quot;&gt;Contact Me&lt;/font&gt;" style="text;html=1;align=center;verticalAlign=middle;whiteSpace=wrap;rounded=0;" vertex="1" parent="1">
          <mxGeometry x="323" y="763" width="205" height="30" as="geometry" />
        </mxCell>
        <mxCell id="F5rcAeHnkL8GsP4LC-Ne-41" value="" style="rounded=1;whiteSpace=wrap;html=1;" vertex="1" parent="1">
          <mxGeometry x="200" y="823" width="180" height="30" as="geometry" />
        </mxCell>
        <mxCell id="F5rcAeHnkL8GsP4LC-Ne-42" value="" style="rounded=1;whiteSpace=wrap;html=1;" vertex="1" parent="1">
          <mxGeometry x="200" y="875" width="180" height="30" as="geometry" />
        </mxCell>
        <mxCell id="F5rcAeHnkL8GsP4LC-Ne-43" value="" style="rounded=1;whiteSpace=wrap;html=1;" vertex="1" parent="1">
          <mxGeometry x="200" y="930" width="180" height="30" as="geometry" />
        </mxCell>
        <mxCell id="F5rcAeHnkL8GsP4LC-Ne-44" value="" style="rounded=1;whiteSpace=wrap;html=1;" vertex="1" parent="1">
          <mxGeometry x="445" y="823" width="210" height="90" as="geometry" />
        </mxCell>
        <mxCell id="F5rcAeHnkL8GsP4LC-Ne-45" value="&lt;font color=&quot;#ffffff&quot;&gt;Send&lt;/font&gt;" style="rounded=1;whiteSpace=wrap;html=1;fillColor=#1E2D2F;strokeColor=#FFFFFF;" vertex="1" parent="1">
          <mxGeometry x="585" y="930" width="70" height="35" as="geometry" />
        </mxCell>
        <mxCell id="F5rcAeHnkL8GsP4LC-Ne-46" value="&lt;font color=&quot;#ffffff&quot;&gt;First Name&lt;/font&gt;" style="text;html=1;align=left;verticalAlign=middle;whiteSpace=wrap;rounded=0;" vertex="1" parent="1">
          <mxGeometry x="200" y="798" width="80" height="30" as="geometry" />
        </mxCell>
        <mxCell id="F5rcAeHnkL8GsP4LC-Ne-47" value="&lt;font color=&quot;#ffffff&quot;&gt;Last Name&lt;/font&gt;" style="text;html=1;align=left;verticalAlign=middle;whiteSpace=wrap;rounded=0;" vertex="1" parent="1">
          <mxGeometry x="200" y="850" width="70" height="30" as="geometry" />
        </mxCell>
        <mxCell id="F5rcAeHnkL8GsP4LC-Ne-48" value="&lt;font color=&quot;#ffffff&quot;&gt;Email&lt;/font&gt;" style="text;html=1;align=left;verticalAlign=middle;whiteSpace=wrap;rounded=0;" vertex="1" parent="1">
          <mxGeometry x="200" y="905" width="60" height="30" as="geometry" />
        </mxCell>
        <mxCell id="F5rcAeHnkL8GsP4LC-Ne-49" value="&lt;font color=&quot;#ffffff&quot;&gt;Message&lt;/font&gt;" style="text;html=1;align=left;verticalAlign=middle;whiteSpace=wrap;rounded=0;" vertex="1" parent="1">
          <mxGeometry x="445" y="798" width="60" height="30" as="geometry" />
        </mxCell>
        <mxCell id="F5rcAeHnkL8GsP4LC-Ne-51" value="&lt;font color=&quot;#ffffff&quot;&gt;Copyright 2024 Alivia Nytko. All rights reserved.&lt;/font&gt;" style="text;html=1;align=center;verticalAlign=middle;whiteSpace=wrap;rounded=0;" vertex="1" parent="1">
          <mxGeometry x="298" y="988" width="255" height="30" as="geometry" />
        </mxCell>
        <mxCell id="F5rcAeHnkL8GsP4LC-Ne-53" value="" style="verticalLabelPosition=bottom;verticalAlign=top;html=1;shape=mxgraph.basic.acute_triangle;dx=0.5;rotation=-180;strokeColor=none;fillColor=#1E2D2F;" vertex="1" parent="1">
          <mxGeometry x="531" y="69" width="12" height="12" as="geometry" />
        </mxCell>
        <mxCell id="F5rcAeHnkL8GsP4LC-Ne-54" value="" style="verticalLabelPosition=bottom;verticalAlign=top;html=1;shape=mxgraph.basic.acute_triangle;dx=0.5;rotation=-180;strokeColor=none;fillColor=#1E2D2F;" vertex="1" parent="1">
          <mxGeometry x="614" y="69" width="12" height="12" as="geometry" />
        </mxCell>
      </root>
    </mxGraphModel>
  </diagram>
</mxfile>
